# xmcd CD database file
#
# Track frame offsets:
#	150
#	18596
#	39258
#	54267
#	77554
#	99145
#	119833
#	142959
#	162113
#	177368
#	188569
#	211245
#
# Disc length: 2968 seconds
#
# Revision: 0
# Processed by: cddbd v1.5.1PL0 Copyright (c) Steve Scherf et al.
# Submitted via: CDex 1.51
#
DISCID=900b960c
DTITLE=Sol Fiya - Heaven She Rides
DYEAR=2003
DGENRE=Blues
TTITLE0=Holden On
TTITLE1=Blood is Only Young
TTITLE2=I Wont Tell You
TTITLE3=Mississippi Moon
TTITLE4=Blue Skies
TTITLE5=Heaven She Rides
TTITLE6=Hey Love
TTITLE7=Innocence
TTITLE8=Livin' For The Sunshine
TTITLE9=Love On The Run
TTITLE10=Sweet Jesus
TTITLE11=Butterfly
EXTD=YEAR: 2003
EXTT0=
EXTT1=
EXTT2=
EXTT3=
EXTT4=
EXTT5=
EXTT6=
EXTT7=
EXTT8=
EXTT9=
EXTT10=
EXTT11=
PLAYORDER=
